<?xml version="1.0" encoding="UTF-8"?>
<!DOCTYPE svg PUBLIC "-//W3C//DTD SVG 1.1//EN" "http://www.w3.org/Graphics/SVG/1.1/DTD/svg11.dtd">
<svg xmlns="http://www.w3.org/2000/svg" version="1.1" width="384px" height="384px" style="shape-rendering:geometricPrecision; text-rendering:geometricPrecision; image-rendering:optimizeQuality; fill-rule:evenodd; clip-rule:evenodd" xmlns:xlink="http://www.w3.org/1999/xlink">
<g><path style="opacity:0.999" fill="#7f5bf5" d="M 195.5,7.5 C 203.5,7.5 211.5,7.5 219.5,7.5C 232.053,9.27859 244.553,11.9453 257,15.5C 257.765,15.4301 258.265,15.0967 258.5,14.5C 258.833,14.5 259.167,14.5 259.5,14.5C 259.47,15.4972 259.97,16.1639 261,16.5C 265.154,17.9404 269.32,19.2737 273.5,20.5C 275.553,20.4021 277.22,21.0687 278.5,22.5C 284.182,26.0078 290.182,29.0078 296.5,31.5C 305.115,35.6265 312.781,40.9598 319.5,47.5C 324.107,53.7762 329.441,59.4428 335.5,64.5C 337.547,66.5496 339.214,68.883 340.5,71.5C 341.08,73.7488 342.413,75.4154 344.5,76.5C 345.338,76.8417 345.672,77.5084 345.5,78.5C 345.427,80.0269 346.094,81.0269 347.5,81.5C 348.338,81.8417 348.672,82.5084 348.5,83.5C 348.427,85.0269 349.094,86.0269 350.5,86.5C 352.674,89.5154 354.341,92.8487 355.5,96.5C 355.402,98.5529 356.069,100.22 357.5,101.5C 357.5,101.833 357.5,102.167 357.5,102.5C 358.593,107.778 360.259,112.778 362.5,117.5C 362.5,117.833 362.5,118.167 362.5,118.5C 362.621,125.219 363.954,131.552 366.5,137.5C 366.5,143.167 366.5,148.833 366.5,154.5C 365.4,156.277 364.566,158.277 364,160.5C 362.913,168.205 361.746,175.872 360.5,183.5C 360.672,184.492 360.338,185.158 359.5,185.5C 357.263,189.534 355.596,193.868 354.5,198.5C 354.008,200.819 353.008,202.819 351.5,204.5C 350.326,205.514 349.66,206.847 349.5,208.5C 345.398,209.609 343.731,212.275 344.5,216.5C 342.1,218.296 340.433,220.63 339.5,223.5C 338.974,225.23 337.974,226.564 336.5,227.5C 333.427,229.569 331.094,232.236 329.5,235.5C 328.5,237.167 327.167,238.5 325.5,239.5C 322.216,241.117 319.549,243.45 317.5,246.5C 314.814,248.856 312.147,251.189 309.5,253.5C 309.565,253.062 309.399,252.728 309,252.5C 304.65,255.037 300.817,258.037 297.5,261.5C 296.609,262.11 295.609,262.443 294.5,262.5C 291.531,263.466 289.198,265.133 287.5,267.5C 287.167,267.5 286.833,267.5 286.5,267.5C 286.5,267.167 286.5,266.833 286.5,266.5C 297.084,255.074 307.584,243.407 318,231.5C 338.168,200.46 344.335,166.627 336.5,130C 334.575,126.559 333.242,122.893 332.5,119C 332.164,117.97 331.497,117.47 330.5,117.5C 328.772,112.485 326.939,107.485 325,102.5C 324.502,100.456 323.335,99.1223 321.5,98.5C 317.498,89.8191 312.498,81.8191 306.5,74.5C 279.124,40.467 243.457,20.967 199.5,16C 185.141,15.2359 170.808,15.4026 156.5,16.5C 160.871,14.9575 165.204,13.2908 169.5,11.5C 178.396,10.802 187.063,9.4687 195.5,7.5 Z"/></g>
<g><path style="opacity:0.875" fill="#ad95f9" d="M 195.5,7.5 C 187.063,9.4687 178.396,10.802 169.5,11.5C 177.907,9.29083 186.574,7.9575 195.5,7.5 Z"/></g>
<g><path style="opacity:0.647" fill="#ab92f9" d="M 219.5,7.5 C 232.906,8.23291 245.906,10.5662 258.5,14.5C 258.265,15.0967 257.765,15.4301 257,15.5C 244.553,11.9453 232.053,9.27859 219.5,7.5 Z"/></g>
<g><path style="opacity:0.631" fill="#a18ff7" d="M 169.5,11.5 C 165.204,13.2908 160.871,14.9575 156.5,16.5C 153.402,16.7556 150.402,17.4222 147.5,18.5C 147.5,17.8333 147.5,17.1667 147.5,16.5C 154.742,14.419 162.075,12.7523 169.5,11.5 Z"/></g>
<g><path style="opacity:0.549" fill="#a98ff8" d="M 259.5,14.5 C 263.482,15.6628 267.482,16.8295 271.5,18C 272.756,18.4169 273.423,19.2502 273.5,20.5C 269.32,19.2737 265.154,17.9404 261,16.5C 259.97,16.1639 259.47,15.4972 259.5,14.5 Z"/></g>
<g><path style="opacity:0.329" fill="#ac93f9" d="M 278.5,22.5 C 282.578,23.7019 286.578,25.2019 290.5,27C 292.859,28.2425 294.859,29.7425 296.5,31.5C 290.182,29.0078 284.182,26.0078 278.5,22.5 Z"/></g>
<g><path style="opacity:1" fill="#2858d9" d="M 306.5,74.5 C 306.631,75.2389 306.464,75.9056 306,76.5C 304.542,74.04 302.709,71.8734 300.5,70C 293.918,69.19 287.418,69.3567 281,70.5C 278.333,67.8333 275.667,65.1667 273,62.5C 272.536,63.0944 272.369,63.7611 272.5,64.5C 243.894,38.4682 210.227,27.9682 171.5,33C 133.953,39.0847 105.953,58.5847 87.5,91.5C 80.9131,89.5388 73.9131,88.8721 66.5,89.5C 66.3832,87.5165 67.0499,85.8498 68.5,84.5C 68.0302,83.537 67.3635,83.537 66.5,84.5C 67.8333,81.8333 69.1667,79.1667 70.5,76.5C 89.8266,48.8515 115.493,29.5181 147.5,18.5C 150.402,17.4222 153.402,16.7556 156.5,16.5C 170.808,15.4026 185.141,15.2359 199.5,16C 243.457,20.967 279.124,40.467 306.5,74.5 Z"/></g>
<g><path style="opacity:1" fill="#cdcdd0" d="M 272.5,64.5 C 284.755,76.3557 293.421,90.3557 298.5,106.5C 301.047,116.323 302.047,126.323 301.5,136.5C 301.5,139.167 301.5,141.833 301.5,144.5C 299.043,152.537 296.376,160.537 293.5,168.5C 292.778,168.918 292.278,169.584 292,170.5C 291.071,164.025 289.905,157.692 288.5,151.5C 289.341,149.621 289.675,147.621 289.5,145.5C 290.817,135.598 290.817,125.598 289.5,115.5C 289.706,112.505 289.04,109.838 287.5,107.5C 285.817,100.471 282.817,94.1375 278.5,88.5C 271.068,75.234 260.735,64.734 247.5,57C 212.157,37.8607 176.157,36.5274 139.5,53C 123.033,61.9685 110.033,74.4685 100.5,90.5C 95.2074,99.3741 91.8741,109.041 90.5,119.5C 89.3439,127.323 89.1772,135.323 90,143.5C 90.6141,147.475 91.7808,151.141 93.5,154.5C 93.9542,158.149 94.9542,161.649 96.5,165C 94.7606,169.295 91.7606,170.462 87.5,168.5C 85.9757,165.926 84.6424,163.259 83.5,160.5C 81.8069,153.728 80.1403,147.061 78.5,140.5C 78.3437,132.471 78.677,124.471 79.5,116.5C 80.6118,114.401 81.2785,112.067 81.5,109.5C 82.9238,107.485 83.5905,105.152 83.5,102.5C 84.5457,98.7394 85.879,95.0727 87.5,91.5C 105.953,58.5847 133.953,39.0847 171.5,33C 210.227,27.9682 243.894,38.4682 272.5,64.5 Z"/></g>
<g><path style="opacity:0.376" fill="#b8a3f9" d="M 319.5,47.5 C 325.559,52.5572 330.893,58.2238 335.5,64.5C 329.441,59.4428 324.107,53.7762 319.5,47.5 Z"/></g>
<g><path style="opacity:1" fill="#1d54d5" d="M 278.5,88.5 C 277.883,88.3893 277.383,88.056 277,87.5C 266.51,89.1586 255.843,90.1586 245,90.5C 242.629,87.794 239.963,85.4606 237,83.5C 236.536,84.0944 236.369,84.7611 236.5,85.5C 207.045,65.134 177.045,64.3007 146.5,83C 143.175,86.6473 139.508,89.814 135.5,92.5C 124.835,90.8068 113.835,89.8068 102.5,89.5C 101.817,89.8627 101.15,90.1961 100.5,90.5C 110.033,74.4685 123.033,61.9685 139.5,53C 176.157,36.5274 212.157,37.8607 247.5,57C 260.735,64.734 271.068,75.234 278.5,88.5 Z"/></g>
<g><path style="opacity:1" fill="#63f7e0" d="M 147.5,16.5 C 147.5,17.1667 147.5,17.8333 147.5,18.5C 115.493,29.5181 89.8266,48.8515 70.5,76.5C 70.44,75.9569 70.1067,75.6236 69.5,75.5C 68.376,76.914 67.376,78.414 66.5,80C 60.8431,80.4994 55.1764,80.6661 49.5,80.5C 50.0427,77.9616 51.0427,75.6282 52.5,73.5C 54.4233,70.3968 56.59,67.3968 59,64.5C 83.5793,39.7875 113.079,23.7875 147.5,16.5 Z"/></g>
<g><path style="opacity:1" fill="#cecdcf" d="M 236.5,85.5 C 248.806,95.4594 256.472,108.126 259.5,123.5C 259.665,126.85 259.498,130.183 259,133.5C 256.519,135.314 253.685,135.98 250.5,135.5C 248.719,129.356 247.553,123.023 247,116.5C 245.906,114.922 245.072,113.255 244.5,111.5C 234.202,92.4993 218.202,81.6659 196.5,79C 171.64,77.0514 152.14,86.2181 138,106.5C 135.271,111.19 133.437,116.19 132.5,121.5C 131.676,125.312 131.176,129.312 131,133.5C 124.268,137.148 120.768,135.148 120.5,127.5C 121.67,121.536 123.17,115.536 125,109.5C 128.01,103.47 131.51,97.8037 135.5,92.5C 139.508,89.814 143.175,86.6473 146.5,83C 177.045,64.3007 207.045,65.134 236.5,85.5 Z"/></g>
<g><path style="opacity:0.686" fill="#b29bf9" d="M 340.5,71.5 C 342.587,72.5846 343.92,74.2512 344.5,76.5C 342.413,75.4154 341.08,73.7488 340.5,71.5 Z"/></g>
<g><path style="opacity:0.361" fill="#c0aefa" d="M 345.5,78.5 C 346.906,78.9731 347.573,79.9731 347.5,81.5C 346.094,81.0269 345.427,80.0269 345.5,78.5 Z"/></g>
<g><path style="opacity:0.325" fill="#bdaafa" d="M 348.5,83.5 C 349.906,83.9731 350.573,84.9731 350.5,86.5C 349.094,86.0269 348.427,85.0269 348.5,83.5 Z"/></g>
<g><path style="opacity:1" fill="#74efd3" d="M 52.5,73.5 C 51.0427,75.6282 50.0427,77.9616 49.5,80.5C 55.1764,80.6661 60.8431,80.4994 66.5,80C 67.376,78.414 68.376,76.914 69.5,75.5C 70.1067,75.6236 70.44,75.9569 70.5,76.5C 69.1667,79.1667 67.8333,81.8333 66.5,84.5C 63.7742,88.9459 61.2742,93.6126 59,98.5C 55.5742,106.865 53.0742,115.532 51.5,124.5C 50.8333,127.833 50.1667,131.167 49.5,134.5C 48.5233,131.713 48.19,128.713 48.5,125.5C 42.3691,126.092 36.5358,125.425 31,123.5C 30.1376,125.087 29.4709,126.754 29,128.5C 28.51,127.207 28.3433,125.873 28.5,124.5C 28.5,124.167 28.5,123.833 28.5,123.5C 31.1899,114.44 34.1899,105.44 37.5,96.5C 41.2588,87.9713 46.2588,80.3047 52.5,73.5 Z"/></g>
<g><path style="opacity:1" fill="#0f4cc9" d="M 87.5,91.5 C 85.879,95.0727 84.5457,98.7394 83.5,102.5C 82.0762,104.515 81.4095,106.848 81.5,109.5C 81.2785,112.067 80.6118,114.401 79.5,116.5C 79.6567,115.127 79.49,113.793 79,112.5C 78.1779,114.788 77.5112,117.122 77,119.5C 69.2088,118.551 61.5421,118.218 54,118.5C 53.4338,120.723 52.6005,122.723 51.5,124.5C 53.0742,115.532 55.5742,106.865 59,98.5C 61.2742,93.6126 63.7742,88.9459 66.5,84.5C 67.3635,83.537 68.0302,83.537 68.5,84.5C 67.0499,85.8498 66.3832,87.5165 66.5,89.5C 73.9131,88.8721 80.9131,89.5388 87.5,91.5 Z"/></g>
<g><path style="opacity:1" fill="#114dca" d="M 244.5,111.5 C 243.35,110.15 242.683,110.316 242.5,112C 243.33,113.465 243.496,114.965 243,116.5C 236.197,115.181 229.363,115.181 222.5,116.5C 220.833,115.167 219.167,113.833 217.5,112.5C 216.702,112.957 216.369,113.624 216.5,114.5C 210.281,108.784 203.614,103.617 196.5,99C 192.5,98.3333 188.5,98.3333 184.5,99C 182.167,100.667 179.833,102.333 177.5,104C 167.578,114.09 157.578,123.923 147.5,133.5C 146.947,131.343 145.947,131.51 144.5,134C 140.5,134.667 136.5,134.667 132.5,134C 132.629,130.045 132.629,125.878 132.5,121.5C 133.437,116.19 135.271,111.19 138,106.5C 152.14,86.2181 171.64,77.0514 196.5,79C 218.202,81.6659 234.202,92.4993 244.5,111.5 Z"/></g>
<g><path style="opacity:1" fill="#1350cf" d="M 306.5,74.5 C 312.498,81.8191 317.498,89.8191 321.5,98.5C 323.16,103.12 324.826,107.787 326.5,112.5C 324.287,109.918 322.62,106.918 321.5,103.5C 314.167,102.167 306.833,102.167 299.5,103.5C 298.873,104.417 298.539,105.417 298.5,106.5C 293.421,90.3557 284.755,76.3557 272.5,64.5C 272.369,63.7611 272.536,63.0944 273,62.5C 275.667,65.1667 278.333,67.8333 281,70.5C 287.418,69.3567 293.918,69.19 300.5,70C 302.709,71.8734 304.542,74.04 306,76.5C 306.464,75.9056 306.631,75.2389 306.5,74.5 Z"/></g>
<g><path style="opacity:0.118" fill="#cbbcfb" d="M 355.5,96.5 C 356.931,97.7804 357.598,99.4471 357.5,101.5C 356.069,100.22 355.402,98.5529 355.5,96.5 Z"/></g>
<g><path style="opacity:1" fill="#0c4ac6" d="M 135.5,92.5 C 131.51,97.8037 128.01,103.47 125,109.5C 123.17,115.536 121.67,121.536 120.5,127.5C 120.662,125.473 120.495,123.473 120,121.5C 119.498,124.513 118.998,127.513 118.5,130.5C 109.5,130.5 100.5,130.5 91.5,130.5C 91.815,126.629 91.4816,122.962 90.5,119.5C 91.8741,109.041 95.2074,99.3741 100.5,90.5C 101.15,90.1961 101.817,89.8627 102.5,89.5C 113.835,89.8068 124.835,90.8068 135.5,92.5 Z"/></g>
<g><path style="opacity:0.906" fill="#b5e0d5" d="M 37.5,96.5 C 34.1899,105.44 31.1899,114.44 28.5,123.5C 28.5751,120.794 28.9084,118.127 29.5,115.5C 31.3812,108.749 34.0479,102.416 37.5,96.5 Z"/></g>
<g><path style="opacity:1" fill="#8aa0d5" d="M 83.5,102.5 C 83.5905,105.152 82.9238,107.485 81.5,109.5C 81.4095,106.848 82.0762,104.515 83.5,102.5 Z"/></g>
<g><path style="opacity:0.8" fill="#af97f9" d="M 357.5,102.5 C 360.137,107.079 361.804,112.079 362.5,117.5C 360.259,112.778 358.593,107.778 357.5,102.5 Z"/></g>
<g><path style="opacity:1" fill="#0c4ac6" d="M 278.5,88.5 C 282.817,94.1375 285.817,100.471 287.5,107.5C 287.565,110.428 288.232,113.095 289.5,115.5C 290.817,125.598 290.817,135.598 289.5,145.5C 289.666,136.161 289.5,126.827 289,117.5C 288.501,121.821 288.334,126.154 288.5,130.5C 279.5,130.5 270.5,130.5 261.5,130.5C 261.789,127.351 261.289,124.351 260,121.5C 259.536,122.094 259.369,122.761 259.5,123.5C 256.472,108.126 248.806,95.4594 236.5,85.5C 236.369,84.7611 236.536,84.0944 237,83.5C 239.963,85.4606 242.629,87.794 245,90.5C 255.843,90.1586 266.51,89.1586 277,87.5C 277.383,88.056 277.883,88.3893 278.5,88.5 Z"/></g>
<g><path style="opacity:1" fill="#6888d4" d="M 287.5,107.5 C 289.04,109.838 289.706,112.505 289.5,115.5C 288.232,113.095 287.565,110.428 287.5,107.5 Z"/></g>
<g><path style="opacity:1" fill="#0b45bf" d="M 244.5,111.5 C 245.072,113.255 245.906,114.922 247,116.5C 247.553,123.023 248.719,129.356 250.5,135.5C 249.405,138.857 247.572,138.857 245,135.5C 244.536,136.094 244.369,136.761 244.5,137.5C 235.167,129.833 225.833,122.167 216.5,114.5C 216.369,113.624 216.702,112.957 217.5,112.5C 219.167,113.833 220.833,115.167 222.5,116.5C 229.363,115.181 236.197,115.181 243,116.5C 243.496,114.965 243.33,113.465 242.5,112C 242.683,110.316 243.35,110.15 244.5,111.5 Z"/></g>
<g><path style="opacity:1" fill="#0848c2" d="M 326.5,112.5 C 330.659,122.637 332.659,133.304 332.5,144.5C 332.5,149.167 332.5,153.833 332.5,158.5C 331.518,155.038 331.185,151.371 331.5,147.5C 331.121,139.708 329.954,132.041 328,124.5C 320,125.833 312,125.833 304,124.5C 302.9,128.503 302.067,132.503 301.5,136.5C 302.047,126.323 301.047,116.323 298.5,106.5C 298.539,105.417 298.873,104.417 299.5,103.5C 306.833,102.167 314.167,102.167 321.5,103.5C 322.62,106.918 324.287,109.918 326.5,112.5 Z"/></g>
<g><path style="opacity:1" fill="#0b44bb" d="M 79.5,116.5 C 78.677,124.471 78.3437,132.471 78.5,140.5C 78.6602,142.199 78.4935,143.866 78,145.5C 77.433,142.832 76.933,140.166 76.5,137.5C 68.5,137.5 60.5,137.5 52.5,137.5C 52.7373,138.791 52.404,139.791 51.5,140.5C 50.4583,144.099 50.125,149.766 50.5,157.5C 50.1667,157.5 49.8333,157.5 49.5,157.5C 49.5,149.833 49.5,142.167 49.5,134.5C 50.1667,131.167 50.8333,127.833 51.5,124.5C 52.6005,122.723 53.4338,120.723 54,118.5C 61.5421,118.218 69.2088,118.551 77,119.5C 77.5112,117.122 78.1779,114.788 79,112.5C 79.49,113.793 79.6567,115.127 79.5,116.5 Z"/></g>
<g><path style="opacity:0.784" fill="#b9a4fa" d="M 362.5,118.5 C 364.379,124.602 365.713,130.935 366.5,137.5C 363.954,131.552 362.621,125.219 362.5,118.5 Z"/></g>
<g><path style="opacity:1" fill="#103cb2" d="M 289.5,145.5 C 289.675,147.621 289.341,149.621 288.5,151.5C 287.566,152.568 287.232,153.901 287.5,155.5C 284.615,155.194 281.948,155.527 279.5,156.5C 276.713,157.477 273.713,157.81 270.5,157.5C 270.5,159.5 270.5,161.5 270.5,163.5C 269.691,161.708 269.191,159.708 269,157.5C 267.144,160.119 264.644,160.952 261.5,160C 262.797,157.455 262.631,154.955 261,152.5C 260.809,154.708 260.309,156.708 259.5,158.5C 259.789,155.351 259.289,152.351 258,149.5C 253.926,144.921 249.426,140.921 244.5,137.5C 244.369,136.761 244.536,136.094 245,135.5C 247.572,138.857 249.405,138.857 250.5,135.5C 253.685,135.98 256.519,135.314 259,133.5C 259.498,130.183 259.665,126.85 259.5,123.5C 259.369,122.761 259.536,122.094 260,121.5C 261.289,124.351 261.789,127.351 261.5,130.5C 270.5,130.5 279.5,130.5 288.5,130.5C 288.334,126.154 288.501,121.821 289,117.5C 289.5,126.827 289.666,136.161 289.5,145.5 Z"/></g>
<g><path style="opacity:1" fill="#083db4" d="M 331.5,147.5 C 322.019,149.552 312.353,150.052 302.5,149C 301.62,147.644 301.286,146.144 301.5,144.5C 301.5,141.833 301.5,139.167 301.5,136.5C 302.067,132.503 302.9,128.503 304,124.5C 312,125.833 320,125.833 328,124.5C 329.954,132.041 331.121,139.708 331.5,147.5 Z"/></g>
<g><path style="opacity:1" fill="#8bdeb9" d="M 49.5,134.5 C 49.5,142.167 49.5,149.833 49.5,157.5C 49.6633,159.857 49.4966,162.19 49,164.5C 48.7489,162.567 48.2489,160.734 47.5,159C 40.7207,159.106 34.2207,158.273 28,156.5C 27.6667,159.167 27.3333,161.833 27,164.5C 26.79,162.942 26.29,161.609 25.5,160.5C 25.5,159.833 25.5,159.167 25.5,158.5C 25.5,151.833 25.5,145.167 25.5,138.5C 26.0244,133.733 27.0244,129.066 28.5,124.5C 28.3433,125.873 28.51,127.207 29,128.5C 29.4709,126.754 30.1376,125.087 31,123.5C 36.5358,125.425 42.3691,126.092 48.5,125.5C 48.19,128.713 48.5233,131.713 49.5,134.5 Z"/></g>
<g><path style="opacity:1" fill="#123aaf" d="M 90.5,119.5 C 91.4816,122.962 91.815,126.629 91.5,130.5C 100.5,130.5 109.5,130.5 118.5,130.5C 118.998,127.513 119.498,124.513 120,121.5C 120.495,123.473 120.662,125.473 120.5,127.5C 120.768,135.148 124.268,137.148 131,133.5C 131.176,129.312 131.676,125.312 132.5,121.5C 132.629,125.878 132.629,130.045 132.5,134C 136.5,134.667 140.5,134.667 144.5,134C 145.947,131.51 146.947,131.343 147.5,133.5C 138.833,141.833 130.167,150.167 121.5,158.5C 121.44,157.957 121.107,157.624 120.5,157.5C 118.833,158.833 117.167,160.167 115.5,161.5C 109.227,160.54 102.893,160.207 96.5,160.5C 95.969,157.763 95.1356,155.096 94,152.5C 93.5357,153.094 93.369,153.761 93.5,154.5C 91.7808,151.141 90.6141,147.475 90,143.5C 89.1772,135.323 89.3439,127.323 90.5,119.5 Z"/></g>
<g><path style="opacity:1" fill="#b3b2b3" d="M 25.5,138.5 C 25.5,145.167 25.5,151.833 25.5,158.5C 24.3592,161.64 24.1925,164.973 25,168.5C 27.096,179.514 29.096,190.514 31,201.5C 31.8936,204.392 33.5603,206.726 36,208.5C 36.4074,212.285 37.2407,215.952 38.5,219.5C 34.3916,212.867 30.8916,205.867 28,198.5C 26.9904,189.126 25.6571,179.793 24,170.5C 23.0638,159.614 23.5638,148.947 25.5,138.5 Z"/></g>
<g><path style="opacity:1" fill="#1338ab" d="M 78.5,140.5 C 80.1403,147.061 81.8069,153.728 83.5,160.5C 73.3166,160.418 62.9833,160.418 52.5,160.5C 51.8605,153.852 51.5272,147.186 51.5,140.5C 52.404,139.791 52.7373,138.791 52.5,137.5C 60.5,137.5 68.5,137.5 76.5,137.5C 76.933,140.166 77.433,142.832 78,145.5C 78.4935,143.866 78.6602,142.199 78.5,140.5 Z"/></g>
<g><path style="opacity:1" fill="#4f2bc5" d="M 321.5,98.5 C 323.335,99.1223 324.502,100.456 325,102.5C 326.939,107.485 328.772,112.485 330.5,117.5C 332.86,127.132 335.026,136.799 337,146.5C 338.796,164.26 337.129,181.593 332,198.5C 330.442,202.367 328.608,206.034 326.5,209.5C 332.763,189.014 335.263,168.014 334,146.5C 333.722,145.584 333.222,144.918 332.5,144.5C 332.659,133.304 330.659,122.637 326.5,112.5C 324.826,107.787 323.16,103.12 321.5,98.5 Z"/></g>
<g><path style="opacity:1" fill="#cecece" d="M 279.5,156.5 C 282.167,156.5 284.833,156.5 287.5,156.5C 288.493,162.125 289.16,167.792 289.5,173.5C 286.941,173.198 284.607,173.532 282.5,174.5C 279.15,174.665 275.817,174.498 272.5,174C 271.46,170.6 270.794,167.1 270.5,163.5C 270.5,161.5 270.5,159.5 270.5,157.5C 273.713,157.81 276.713,157.477 279.5,156.5 Z"/></g>
<g><path style="opacity:1" fill="#1931a1" d="M 301.5,144.5 C 301.286,146.144 301.62,147.644 302.5,149C 312.353,150.052 322.019,149.552 331.5,147.5C 331.185,151.371 331.518,155.038 332.5,158.5C 332.5,160.833 332.5,163.167 332.5,165.5C 331.085,171.717 329.585,178.05 328,184.5C 327.785,181.144 327.785,177.811 328,174.5C 327.626,175.416 327.126,176.25 326.5,177C 319.5,177.667 312.5,177.667 305.5,177C 305.833,176.667 306.167,176.333 306.5,176C 305.552,175.517 304.552,175.351 303.5,175.5C 304.78,174.069 306.447,173.402 308.5,173.5C 307.296,165.431 303.463,163.764 297,168.5C 296.53,169.577 296.697,170.577 297.5,171.5C 297.539,172.756 297.039,173.756 296,174.5C 295.333,173.167 294.667,173.167 294,174.5C 294.423,172.613 294.256,170.613 293.5,168.5C 296.376,160.537 299.043,152.537 301.5,144.5 Z"/></g>
<g><path style="opacity:0.808" fill="#b39bf9" d="M 366.5,154.5 C 365.454,164.467 363.454,174.134 360.5,183.5C 361.746,175.872 362.913,168.205 364,160.5C 364.566,158.277 365.4,156.277 366.5,154.5 Z"/></g>
<g><path style="opacity:1" fill="#1b2c9b" d="M 51.5,140.5 C 51.5272,147.186 51.8605,153.852 52.5,160.5C 62.9833,160.418 73.3166,160.418 83.5,160.5C 84.6424,163.259 85.9757,165.926 87.5,168.5C 91.7606,170.462 94.7606,169.295 96.5,165C 94.9542,161.649 93.9542,158.149 93.5,154.5C 93.369,153.761 93.5357,153.094 94,152.5C 95.1356,155.096 95.969,157.763 96.5,160.5C 102.893,160.207 109.227,160.54 115.5,161.5C 117.167,160.167 118.833,158.833 120.5,157.5C 121.107,157.624 121.44,157.957 121.5,158.5C 111.78,167.888 102.114,177.222 92.5,186.5C 92.631,185.761 92.4643,185.094 92,184.5C 90.9805,185.687 89.8139,186.687 88.5,187.5C 78.3566,185.557 68.0232,184.891 57.5,185.5C 57.6347,183.028 56.968,181.694 55.5,181.5C 54.6515,179.112 53.6515,176.779 52.5,174.5C 51.1032,168.929 50.4365,163.262 50.5,157.5C 50.125,149.766 50.4583,144.099 51.5,140.5 Z"/></g>
<g><path style="opacity:1" fill="#cecece" d="M 243.5,168.5 C 244.46,170.461 245.793,172.127 247.5,173.5C 249.273,174.314 249.773,175.648 249,177.5C 245.325,181.079 241.158,183.745 236.5,185.5C 233.655,182.488 230.988,179.321 228.5,176C 230.383,173.384 232.716,171.218 235.5,169.5C 237.882,166.138 240.549,165.805 243.5,168.5 Z"/></g>
<g><path style="opacity:1" fill="#5159b0" d="M 244.5,166.5 C 245.288,169.621 247.288,171.288 250.5,171.5C 249.5,172.167 248.5,172.833 247.5,173.5C 245.793,172.127 244.46,170.461 243.5,168.5C 243.328,167.508 243.662,166.842 244.5,166.5 Z"/></g>
<g><path style="opacity:1" fill="#3840a3" d="M 288.5,151.5 C 289.905,157.692 291.071,164.025 292,170.5C 292.278,169.584 292.778,168.918 293.5,168.5C 294.256,170.613 294.423,172.613 294,174.5C 294.667,173.167 295.333,173.167 296,174.5C 297.039,173.756 297.539,172.756 297.5,171.5C 298.682,174.009 300.682,175.343 303.5,175.5C 298.93,176.583 294.43,177.916 290,179.5C 289.617,178.944 289.117,178.611 288.5,178.5C 288.414,177.504 288.748,176.671 289.5,176C 287.527,175.505 285.527,175.338 283.5,175.5C 283.5,174.833 283.167,174.5 282.5,174.5C 284.607,173.532 286.941,173.198 289.5,173.5C 289.16,167.792 288.493,162.125 287.5,156.5C 284.833,156.5 282.167,156.5 279.5,156.5C 281.948,155.527 284.615,155.194 287.5,155.5C 287.232,153.901 287.566,152.568 288.5,151.5 Z"/></g>
<g><path style="opacity:1" fill="#1e2894" d="M 127.5,164.5 C 128.239,164.369 128.906,164.536 129.5,165C 128.315,166.353 126.981,167.52 125.5,168.5C 162.407,169.481 199.073,169.814 235.5,169.5C 232.716,171.218 230.383,173.384 228.5,176C 230.988,179.321 233.655,182.488 236.5,185.5C 235.778,186.551 234.778,187.218 233.5,187.5C 234.149,184.389 232.816,182.056 229.5,180.5C 228.817,180.863 228.15,181.196 227.5,181.5C 227.565,181.062 227.399,180.728 227,180.5C 225.833,181.667 224.667,182.833 223.5,184C 185.829,184.833 148.162,184.667 110.5,183.5C 111.981,182.056 111.648,181.389 109.5,181.5C 115.474,175.861 121.474,170.195 127.5,164.5 Z"/></g>
<g><path style="opacity:1" fill="#ceced0" d="M 277.5,193.5 C 277.586,194.496 277.252,195.329 276.5,196C 271.573,198.38 266.739,200.88 262,203.5C 259.236,201.244 257.069,198.577 255.5,195.5C 254.56,193.388 253.394,191.388 252,189.5C 251.333,188.167 251.333,186.833 252,185.5C 256.64,182.763 261.473,180.43 266.5,178.5C 267.442,178.608 268.275,178.941 269,179.5C 271.662,184.316 274.495,188.982 277.5,193.5 Z"/></g>
<g><path style="opacity:1" fill="#9bcda0" d="M 49.5,157.5 C 49.8333,157.5 50.1667,157.5 50.5,157.5C 50.4365,163.262 51.1032,168.929 52.5,174.5C 53.3377,177.919 53.671,181.252 53.5,184.5C 46.5,185.167 39.5,185.833 32.5,186.5C 33.7053,187.995 33.7053,189.328 32.5,190.5C 32.0113,189.005 31.3446,187.671 30.5,186.5C 28.4604,177.882 26.7937,169.215 25.5,160.5C 26.29,161.609 26.79,162.942 27,164.5C 27.3333,161.833 27.6667,159.167 28,156.5C 34.2207,158.273 40.7207,159.106 47.5,159C 48.2489,160.734 48.7489,162.567 49,164.5C 49.4966,162.19 49.6633,159.857 49.5,157.5 Z"/></g>
<g><path style="opacity:1" fill="#ceced0" d="M 216.5,114.5 C 225.833,122.167 235.167,129.833 244.5,137.5C 249.426,140.921 253.926,144.921 258,149.5C 259.289,152.351 259.789,155.351 259.5,158.5C 259.649,159.552 259.483,160.552 259,161.5C 256.331,165 253.498,168.333 250.5,171.5C 247.288,171.288 245.288,169.621 244.5,166.5C 245.303,165.577 245.47,164.577 245,163.5C 239.96,158.956 234.794,154.622 229.5,150.5C 219.858,142.53 210.191,134.53 200.5,126.5C 194.544,121.553 188.544,116.553 182.5,111.5C 175.51,117.49 168.844,123.823 162.5,130.5C 156.167,136.167 150.167,142.167 144.5,148.5C 138.224,153.107 132.557,158.441 127.5,164.5C 121.474,170.195 115.474,175.861 109.5,181.5C 104.657,185.51 100.324,190.01 96.5,195C 104.459,202.64 112.793,209.806 121.5,216.5C 134.148,226.81 146.814,237.143 159.5,247.5C 170.488,238.178 180.822,228.178 190.5,217.5C 203.469,206.199 215.802,194.199 227.5,181.5C 228.15,181.196 228.817,180.863 229.5,180.5C 232.816,182.056 234.149,184.389 233.5,187.5C 218.864,200.469 204.864,214.135 191.5,228.5C 187.544,230.788 184.211,233.788 181.5,237.5C 178.167,240.167 175.167,243.167 172.5,246.5C 167.336,251.496 162.003,256.329 156.5,261C 149.5,265.667 142.5,265.667 135.5,261C 128.174,254.017 120.507,247.517 112.5,241.5C 102.167,232.833 91.8333,224.167 81.5,215.5C 77.91,211.487 76.7434,206.82 78,201.5C 82.3368,195.997 87.1701,190.997 92.5,186.5C 102.114,177.222 111.78,167.888 121.5,158.5C 130.167,150.167 138.833,141.833 147.5,133.5C 157.578,123.923 167.578,114.09 177.5,104C 179.833,102.333 182.167,100.667 184.5,99C 188.5,98.3333 192.5,98.3333 196.5,99C 203.614,103.617 210.281,108.784 216.5,114.5 Z"/></g>
<g><path style="opacity:1" fill="#1631a3" d="M 144.5,148.5 C 143.537,149.363 143.537,150.03 144.5,150.5C 157.846,149.185 171.346,148.518 185,148.5C 198.167,148.667 211.333,148.833 224.5,149C 225.905,150.269 227.571,150.769 229.5,150.5C 234.794,154.622 239.96,158.956 245,163.5C 245.47,164.577 245.303,165.577 244.5,166.5C 243.662,166.842 243.328,167.508 243.5,168.5C 240.549,165.805 237.882,166.138 235.5,169.5C 199.073,169.814 162.407,169.481 125.5,168.5C 126.981,167.52 128.315,166.353 129.5,165C 128.906,164.536 128.239,164.369 127.5,164.5C 132.557,158.441 138.224,153.107 144.5,148.5 Z"/></g>
<g><path style="opacity:1" fill="#0b3cb3" d="M 200.5,126.5 C 210.191,134.53 219.858,142.53 229.5,150.5C 227.571,150.769 225.905,150.269 224.5,149C 211.333,148.833 198.167,148.667 185,148.5C 171.346,148.518 157.846,149.185 144.5,150.5C 143.537,150.03 143.537,149.363 144.5,148.5C 150.167,142.167 156.167,136.167 162.5,130.5C 164.716,129.797 166.549,128.464 168,126.5C 168.507,127.996 168.007,129.163 166.5,130C 178.167,130.667 189.833,130.667 201.5,130C 200.5,129 199.5,128 198.5,127C 199.094,126.536 199.761,126.369 200.5,126.5 Z"/></g>
<g><path style="opacity:1" fill="#f8f9fb" d="M 207.5,121.5 C 209.308,121.491 210.975,121.991 212.5,123C 219.541,129.176 226.541,135.343 233.5,141.5C 232.277,142.614 230.944,142.781 229.5,142C 223.5,137 217.5,132 211.5,127C 209.536,125.549 208.203,123.716 207.5,121.5 Z"/></g>
<g><path style="opacity:1" fill="#0945bf" d="M 200.5,126.5 C 199.761,126.369 199.094,126.536 198.5,127C 199.5,128 200.5,129 201.5,130C 189.833,130.667 178.167,130.667 166.5,130C 168.007,129.163 168.507,127.996 168,126.5C 166.549,128.464 164.716,129.797 162.5,130.5C 168.844,123.823 175.51,117.49 182.5,111.5C 188.544,116.553 194.544,121.553 200.5,126.5 Z"/></g>
<g><path style="opacity:1" fill="#202792" d="M 270.5,163.5 C 270.794,167.1 271.46,170.6 272.5,174C 275.817,174.498 279.15,174.665 282.5,174.5C 283.167,174.5 283.5,174.833 283.5,175.5C 281.473,175.338 279.473,175.505 277.5,176C 275.751,178.086 274.417,180.419 273.5,183C 274.727,185.957 276.56,188.457 279,190.5C 282.387,186.62 285.553,182.62 288.5,178.5C 289.117,178.611 289.617,178.944 290,179.5C 294.43,177.916 298.93,176.583 303.5,175.5C 304.552,175.351 305.552,175.517 306.5,176C 306.167,176.333 305.833,176.667 305.5,177C 312.5,177.667 319.5,177.667 326.5,177C 327.126,176.25 327.626,175.416 328,174.5C 327.785,177.811 327.785,181.144 328,184.5C 329.585,178.05 331.085,171.717 332.5,165.5C 333.044,173.294 331.711,180.628 328.5,187.5C 328.19,186.262 327.69,186.262 327,187.5C 325.925,190.894 324.758,194.228 323.5,197.5C 321.361,203.112 318.694,208.446 315.5,213.5C 314.957,213.44 314.624,213.107 314.5,212.5C 319.12,204.95 322.286,196.95 324,188.5C 323.5,189.5 323,190.5 322.5,191.5C 315.747,191.887 309.247,192.887 303,194.5C 302.722,193.584 302.222,192.918 301.5,192.5C 299.301,188.753 296.634,185.42 293.5,182.5C 290.721,183.389 288.055,184.556 285.5,186C 283.963,187.11 283.297,188.61 283.5,190.5C 283.357,192.262 283.691,193.929 284.5,195.5C 281.412,197.089 279.078,196.422 277.5,193.5C 274.495,188.982 271.662,184.316 269,179.5C 268.275,178.941 267.442,178.608 266.5,178.5C 261.473,180.43 256.64,182.763 252,185.5C 251.333,186.833 251.333,188.167 252,189.5C 253.394,191.388 254.56,193.388 255.5,195.5C 254.768,196.808 253.934,198.142 253,199.5C 252.252,197.668 251.252,196.001 250,194.5C 249.536,195.094 249.369,195.761 249.5,196.5C 248.19,194.565 246.857,192.565 245.5,190.5C 244.675,189.614 243.675,189.281 242.5,189.5C 243.263,188.732 244.263,188.232 245.5,188C 242.203,187.796 239.203,186.963 236.5,185.5C 241.158,183.745 245.325,181.079 249,177.5C 249.773,175.648 249.273,174.314 247.5,173.5C 248.5,172.833 249.5,172.167 250.5,171.5C 253.498,168.333 256.331,165 259,161.5C 259.483,160.552 259.649,159.552 259.5,158.5C 260.309,156.708 260.809,154.708 261,152.5C 262.631,154.955 262.797,157.455 261.5,160C 264.644,160.952 267.144,160.119 269,157.5C 269.191,159.708 269.691,161.708 270.5,163.5 Z"/></g>
<g><path style="opacity:1" fill="#cecece" d="M 301.5,192.5 C 301.631,193.376 301.298,194.043 300.5,194.5C 297.239,196.047 294.072,197.713 291,199.5C 288.031,196.897 285.531,193.897 283.5,190.5C 283.297,188.61 283.963,187.11 285.5,186C 288.055,184.556 290.721,183.389 293.5,182.5C 296.634,185.42 299.301,188.753 301.5,192.5 Z"/></g>
<g><path style="opacity:1" fill="#ceced0" d="M 283.5,175.5 C 285.527,175.338 287.527,175.505 289.5,176C 288.748,176.671 288.414,177.504 288.5,178.5C 285.553,182.62 282.387,186.62 279,190.5C 276.56,188.457 274.727,185.957 273.5,183C 274.417,180.419 275.751,178.086 277.5,176C 279.473,175.505 281.473,175.338 283.5,175.5 Z"/></g>
<g><path style="opacity:1" fill="#cecdd0" d="M 303.5,175.5 C 300.682,175.343 298.682,174.009 297.5,171.5C 296.697,170.577 296.53,169.577 297,168.5C 303.463,163.764 307.296,165.431 308.5,173.5C 306.447,173.402 304.78,174.069 303.5,175.5 Z"/></g>
<g><path style="opacity:0.155" fill="#bca8fa" d="M 359.5,185.5 C 358.796,190.29 357.129,194.623 354.5,198.5C 355.596,193.868 357.263,189.534 359.5,185.5 Z"/></g>
<g><path style="opacity:1" fill="#201e86" d="M 92.5,186.5 C 87.1701,190.997 82.3368,195.997 78,201.5C 76.7434,206.82 77.91,211.487 81.5,215.5C 78.8872,216.435 76.2205,216.602 73.5,216C 70.9627,213.094 68.796,209.927 67,206.5C 66.5357,207.094 66.369,207.761 66.5,208.5C 61.4819,200.127 57.8152,191.127 55.5,181.5C 56.968,181.694 57.6347,183.028 57.5,185.5C 68.0232,184.891 78.3566,185.557 88.5,187.5C 89.8139,186.687 90.9805,185.687 92,184.5C 92.4643,185.094 92.631,185.761 92.5,186.5 Z"/></g>
<g><path style="opacity:1" fill="#211f86" d="M 227.5,181.5 C 215.802,194.199 203.469,206.199 190.5,217.5C 168.67,216.668 146.67,216.168 124.5,216C 122.947,213.86 121.947,214.027 121.5,216.5C 112.793,209.806 104.459,202.64 96.5,195C 100.324,190.01 104.657,185.51 109.5,181.5C 111.648,181.389 111.981,182.056 110.5,183.5C 148.162,184.667 185.829,184.833 223.5,184C 224.667,182.833 225.833,181.667 227,180.5C 227.399,180.728 227.565,181.062 227.5,181.5 Z"/></g>
<g><path style="opacity:1" fill="#0d2c6b" d="M 328.5,187.5 C 328.037,190.221 327.371,192.888 326.5,195.5C 325.833,196.5 325.167,197.5 324.5,198.5C 324.5,197.833 324.167,197.5 323.5,197.5C 324.758,194.228 325.925,190.894 327,187.5C 327.69,186.262 328.19,186.262 328.5,187.5 Z"/></g>
<g><path style="opacity:1" fill="#211c81" d="M 236.5,185.5 C 239.203,186.963 242.203,187.796 245.5,188C 244.263,188.232 243.263,188.732 242.5,189.5C 239.658,191.087 236.992,192.92 234.5,195C 236.053,198.614 238.22,201.78 241,204.5C 243.894,203.303 246.727,201.97 249.5,200.5C 250.626,199.192 250.626,197.858 249.5,196.5C 249.369,195.761 249.536,195.094 250,194.5C 251.252,196.001 252.252,197.668 253,199.5C 253.934,198.142 254.768,196.808 255.5,195.5C 257.069,198.577 259.236,201.244 262,203.5C 266.739,200.88 271.573,198.38 276.5,196C 277.252,195.329 277.586,194.496 277.5,193.5C 279.078,196.422 281.412,197.089 284.5,195.5C 283.691,193.929 283.357,192.262 283.5,190.5C 285.531,193.897 288.031,196.897 291,199.5C 294.072,197.713 297.239,196.047 300.5,194.5C 301.298,194.043 301.631,193.376 301.5,192.5C 302.222,192.918 302.722,193.584 303,194.5C 309.247,192.887 315.747,191.887 322.5,191.5C 323,190.5 323.5,189.5 324,188.5C 322.286,196.95 319.12,204.95 314.5,212.5C 314.624,213.107 314.957,213.44 315.5,213.5C 315.5,213.833 315.5,214.167 315.5,214.5C 313.5,217.167 311.5,219.833 309.5,222.5C 308.733,221.828 308.066,220.995 307.5,220C 308.357,219.311 309.023,218.478 309.5,217.5C 290.509,216.667 271.509,216.167 252.5,216C 255.402,215.081 255.735,214.248 253.5,213.5C 257.766,210.355 262.099,207.188 266.5,204C 264.231,204.374 261.898,204.374 259.5,204C 258.275,202.437 256.775,201.27 255,200.5C 241,210.412 225.5,216.912 208.5,220C 207.619,220.708 206.953,221.542 206.5,222.5C 205.71,223.609 205.21,224.942 205,226.5C 204.505,224.527 204.338,222.527 204.5,220.5C 203.448,220.351 202.448,220.517 201.5,221C 198.579,224.852 195.245,227.352 191.5,228.5C 204.864,214.135 218.864,200.469 233.5,187.5C 234.778,187.218 235.778,186.551 236.5,185.5 Z"/></g>
<g><path style="opacity:1" fill="#cecdce" d="M 242.5,189.5 C 243.675,189.281 244.675,189.614 245.5,190.5C 246.857,192.565 248.19,194.565 249.5,196.5C 250.626,197.858 250.626,199.192 249.5,200.5C 246.727,201.97 243.894,203.303 241,204.5C 238.22,201.78 236.053,198.614 234.5,195C 236.992,192.92 239.658,191.087 242.5,189.5 Z"/></g>
<g><path style="opacity:1" fill="#cdcdd0" d="M 253.5,213.5 C 241.756,219.829 229.422,224.662 216.5,228C 213.833,228.667 211.167,228.667 208.5,228C 206.845,226.556 206.178,224.722 206.5,222.5C 206.953,221.542 207.619,220.708 208.5,220C 225.5,216.912 241,210.412 255,200.5C 256.775,201.27 258.275,202.437 259.5,204C 261.898,204.374 264.231,204.374 266.5,204C 262.099,207.188 257.766,210.355 253.5,213.5 Z"/></g>
<g><path style="opacity:1" fill="#a0c08a" d="M 52.5,174.5 C 53.6515,176.779 54.6515,179.112 55.5,181.5C 57.8152,191.127 61.4819,200.127 66.5,208.5C 68.5283,212.184 70.5283,215.85 72.5,219.5C 65.3768,219.588 58.0435,219.588 50.5,219.5C 56.7464,231.924 65.7464,242.091 77.5,250C 76.944,250.383 76.6107,250.883 76.5,251.5C 63.7054,241.709 53.0388,230.042 44.5,216.5C 39.4244,208.348 35.4244,199.681 32.5,190.5C 33.7053,189.328 33.7053,187.995 32.5,186.5C 39.5,185.833 46.5,185.167 53.5,184.5C 53.671,181.252 53.3377,177.919 52.5,174.5 Z"/></g>
<g><path style="opacity:1" fill="#173a5b" d="M 323.5,197.5 C 324.167,197.5 324.5,197.833 324.5,198.5C 322.868,204.43 320.202,209.764 316.5,214.5C 316.167,214.5 315.833,214.5 315.5,214.5C 315.5,214.167 315.5,213.833 315.5,213.5C 318.694,208.446 321.361,203.112 323.5,197.5 Z"/></g>
<g><path style="opacity:0.067" fill="#c2b2fa" d="M 351.5,204.5 C 351.771,206.38 351.104,207.713 349.5,208.5C 349.66,206.847 350.326,205.514 351.5,204.5 Z"/></g>
<g><path style="opacity:1" fill="#a182f8" d="M 349.5,208.5 C 348.331,211.511 346.664,214.178 344.5,216.5C 343.731,212.275 345.398,209.609 349.5,208.5 Z"/></g>
<g><path style="opacity:1" fill="#280b9d" d="M 332.5,144.5 C 333.222,144.918 333.722,145.584 334,146.5C 335.263,168.014 332.763,189.014 326.5,209.5C 324.227,212.851 322.393,216.518 321,220.5C 320.292,221.381 319.458,222.047 318.5,222.5C 309.168,236.01 298.501,248.51 286.5,260C 278.377,266.045 270.044,271.545 261.5,276.5C 257.195,278.746 252.529,280.08 247.5,280.5C 247.833,279.833 248.167,279.167 248.5,278.5C 250.965,278.233 253.299,277.566 255.5,276.5C 258.707,275.821 261.707,274.654 264.5,273C 265.167,272 265.833,271 266.5,270C 269.898,268.643 272.898,266.81 275.5,264.5C 275.5,263.833 275.833,263.5 276.5,263.5C 289.206,256.158 299.206,246.158 306.5,233.5C 311.288,227.104 315.788,220.438 320,213.5C 323.033,207.777 325.199,201.777 326.5,195.5C 327.371,192.888 328.037,190.221 328.5,187.5C 331.711,180.628 333.044,173.294 332.5,165.5C 332.5,163.167 332.5,160.833 332.5,158.5C 332.5,153.833 332.5,149.167 332.5,144.5 Z"/></g>
<g><path style="opacity:0.071" fill="#baa5fa" d="M 344.5,216.5 C 343.567,219.37 341.9,221.704 339.5,223.5C 340.433,220.63 342.1,218.296 344.5,216.5 Z"/></g>
<g><path style="opacity:1" fill="#fbfcfd" d="M 114.5,224.5 C 122.523,224.161 124.856,227.495 121.5,234.5C 114.7,236.853 111.533,234.52 112,227.5C 113.045,226.627 113.878,225.627 114.5,224.5 Z"/></g>
<g><path style="opacity:1" fill="#1f1575" d="M 253.5,213.5 C 255.735,214.248 255.402,215.081 252.5,216C 271.509,216.167 290.509,216.667 309.5,217.5C 309.023,218.478 308.357,219.311 307.5,220C 308.066,220.995 308.733,221.828 309.5,222.5C 303.914,230.423 297.581,237.757 290.5,244.5C 290.167,244.5 289.833,244.5 289.5,244.5C 289.062,244.565 288.728,244.399 288.5,244C 290.833,241.667 293.167,239.333 295.5,237C 294.275,236.437 293.275,236.77 292.5,238C 255.471,238.814 218.471,238.648 181.5,237.5C 184.211,233.788 187.544,230.788 191.5,228.5C 195.245,227.352 198.579,224.852 201.5,221C 202.448,220.517 203.448,220.351 204.5,220.5C 204.338,222.527 204.505,224.527 205,226.5C 205.21,224.942 205.71,223.609 206.5,222.5C 206.178,224.722 206.845,226.556 208.5,228C 211.167,228.667 213.833,228.667 216.5,228C 229.422,224.662 241.756,219.829 253.5,213.5 Z"/></g>
<g><path style="opacity:1" fill="#062575" d="M 326.5,195.5 C 325.199,201.777 323.033,207.777 320,213.5C 315.788,220.438 311.288,227.104 306.5,233.5C 308.167,230.167 309.833,226.833 311.5,223.5C 313.42,220.661 315.087,217.661 316.5,214.5C 320.202,209.764 322.868,204.43 324.5,198.5C 325.167,197.5 325.833,196.5 326.5,195.5 Z"/></g>
<g><path style="opacity:1" fill="#1e1475" d="M 81.5,215.5 C 91.8333,224.167 102.167,232.833 112.5,241.5C 112.631,242.239 112.464,242.906 112,243.5C 110.59,242.213 109.09,241.046 107.5,240C 102.115,239.786 96.7813,239.286 91.5,238.5C 90.8933,238.624 90.56,238.957 90.5,239.5C 84.1298,233.132 78.1298,226.465 72.5,219.5C 70.5283,215.85 68.5283,212.184 66.5,208.5C 66.369,207.761 66.5357,207.094 67,206.5C 68.796,209.927 70.9627,213.094 73.5,216C 76.2205,216.602 78.8872,216.435 81.5,215.5 Z"/></g>
<g><path style="opacity:1" fill="#201676" d="M 190.5,217.5 C 180.822,228.178 170.488,238.178 159.5,247.5C 146.814,237.143 134.148,226.81 121.5,216.5C 121.947,214.027 122.947,213.86 124.5,216C 146.67,216.168 168.67,216.668 190.5,217.5 Z"/></g>
<g><path style="opacity:1" fill="#2e5343" d="M 315.5,214.5 C 315.833,214.5 316.167,214.5 316.5,214.5C 315.087,217.661 313.42,220.661 311.5,223.5C 307.197,228.809 302.863,234.142 298.5,239.5C 296.167,241.5 293.833,243.5 291.5,245.5C 291.5,244.833 291.167,244.5 290.5,244.5C 297.581,237.757 303.914,230.423 309.5,222.5C 311.5,219.833 313.5,217.167 315.5,214.5 Z"/></g>
<g><path style="opacity:0.043" fill="#bba7fa" d="M 336.5,227.5 C 334.906,230.764 332.573,233.431 329.5,235.5C 331.094,232.236 333.427,229.569 336.5,227.5 Z"/></g>
<g><path style="opacity:1" fill="#193b5f" d="M 311.5,223.5 C 309.833,226.833 308.167,230.167 306.5,233.5C 301.536,237.163 297.702,241.829 295,247.5C 292.557,249.301 290.057,250.968 287.5,252.5C 287.414,251.504 287.748,250.671 288.5,250C 293.082,247.655 296.415,244.155 298.5,239.5C 302.863,234.142 307.197,228.809 311.5,223.5 Z"/></g>
<g><path style="opacity:1" fill="#6440da" d="M 330.5,117.5 C 331.497,117.47 332.164,117.97 332.5,119C 333.242,122.893 334.575,126.559 336.5,130C 344.335,166.627 338.168,200.46 318,231.5C 307.584,243.407 297.084,255.074 286.5,266.5C 282.701,268.547 278.701,270.214 274.5,271.5C 289.052,260.443 302.219,247.11 314,231.5C 315.761,228.589 317.261,225.589 318.5,222.5C 319.458,222.047 320.292,221.381 321,220.5C 322.393,216.518 324.227,212.851 326.5,209.5C 328.608,206.034 330.442,202.367 332,198.5C 337.129,181.593 338.796,164.26 337,146.5C 335.026,136.799 332.86,127.132 330.5,117.5 Z"/></g>
<g><path style="opacity:1" fill="#1d106d" d="M 289.5,244.5 C 284.771,249.561 279.438,253.894 273.5,257.5C 272.761,257.631 272.094,257.464 271.5,257C 274.009,255.579 276.343,253.912 278.5,252C 277.275,251.437 276.275,251.77 275.5,253C 239.833,253.667 204.167,253.667 168.5,253C 170.167,250.667 172.167,248.667 174.5,247C 173.906,246.536 173.239,246.369 172.5,246.5C 175.167,243.167 178.167,240.167 181.5,237.5C 218.471,238.648 255.471,238.814 292.5,238C 293.275,236.77 294.275,236.437 295.5,237C 293.167,239.333 290.833,241.667 288.5,244C 288.728,244.399 289.062,244.565 289.5,244.5 Z"/></g>
<g><path style="opacity:0.078" fill="#af98f8" d="M 325.5,239.5 C 323.477,242.52 320.81,244.854 317.5,246.5C 319.549,243.45 322.216,241.117 325.5,239.5 Z"/></g>
<g><path style="opacity:1" fill="#898a89" d="M 25.5,158.5 C 25.5,159.167 25.5,159.833 25.5,160.5C 26.7937,169.215 28.4604,177.882 30.5,186.5C 29.9033,186.735 29.5699,187.235 29.5,188C 34.1081,201.886 39.9415,215.052 47,227.5C 55.0988,237.602 63.9321,247.102 73.5,256C 74.8333,256.333 76.1667,256.667 77.5,257C 84.7069,262.384 91.3735,268.217 97.5,274.5C 91.6532,273.166 86.9866,270 83.5,265C 68.7726,256.608 56.9393,245.108 48,230.5C 46.549,228.536 44.7157,227.203 42.5,226.5C 40.8009,224.434 39.4676,222.1 38.5,219.5C 37.2407,215.952 36.4074,212.285 36,208.5C 33.5603,206.726 31.8936,204.392 31,201.5C 29.096,190.514 27.096,179.514 25,168.5C 24.1925,164.973 24.3592,161.64 25.5,158.5 Z"/></g>
<g><path style="opacity:1" fill="#9db477" d="M 72.5,219.5 C 78.1298,226.465 84.1298,233.132 90.5,239.5C 97.2432,246.581 104.577,252.914 112.5,258.5C 111.45,258.905 111.45,259.571 112.5,260.5C 107.198,261.663 101.864,261.829 96.5,261C 93.9417,259.374 91.275,258.374 88.5,258C 93.6682,261.419 99.0016,264.585 104.5,267.5C 105.298,267.957 105.631,268.624 105.5,269.5C 94.9862,264.749 85.3196,258.749 76.5,251.5C 76.6107,250.883 76.944,250.383 77.5,250C 65.7464,242.091 56.7464,231.924 50.5,219.5C 58.0435,219.588 65.3768,219.588 72.5,219.5 Z"/></g>
<g><path style="opacity:1" fill="#636363" d="M 30.5,186.5 C 31.3446,187.671 32.0113,189.005 32.5,190.5C 35.4244,199.681 39.4244,208.348 44.5,216.5C 43.9569,216.56 43.6236,216.893 43.5,217.5C 44.4672,219.63 45.6338,221.63 47,223.5C 61.9484,242.118 79.115,258.284 98.5,272C 103.829,273.998 108.829,276.498 113.5,279.5C 111.801,279.66 110.134,279.494 108.5,279C 105.269,276.442 101.602,274.942 97.5,274.5C 91.3735,268.217 84.7069,262.384 77.5,257C 76.1667,256.667 74.8333,256.333 73.5,256C 63.9321,247.102 55.0988,237.602 47,227.5C 39.9415,215.052 34.1081,201.886 29.5,188C 29.5699,187.235 29.9033,186.735 30.5,186.5 Z"/></g>
<g><path style="opacity:1" fill="#0b1e7d" d="M 306.5,233.5 C 299.206,246.158 289.206,256.158 276.5,263.5C 276.369,262.761 276.536,262.094 277,261.5C 280.516,259.172 283.682,256.505 286.5,253.5C 286.5,252.833 286.833,252.5 287.5,252.5C 290.057,250.968 292.557,249.301 295,247.5C 297.702,241.829 301.536,237.163 306.5,233.5 Z"/></g>
<g><path style="opacity:0.173" fill="#a58bf7" d="M 309.5,253.5 C 305.795,256.526 301.795,259.192 297.5,261.5C 300.817,258.037 304.65,255.037 309,252.5C 309.399,252.728 309.565,253.062 309.5,253.5 Z"/></g>
<g><path style="opacity:1" fill="#1c0c66" d="M 112.5,241.5 C 120.507,247.517 128.174,254.017 135.5,261C 142.5,265.667 149.5,265.667 156.5,261C 162.003,256.329 167.336,251.496 172.5,246.5C 173.239,246.369 173.906,246.536 174.5,247C 172.167,248.667 170.167,250.667 168.5,253C 204.167,253.667 239.833,253.667 275.5,253C 276.275,251.77 277.275,251.437 278.5,252C 276.343,253.912 274.009,255.579 271.5,257C 272.094,257.464 272.761,257.631 273.5,257.5C 252.234,271.593 228.901,280.593 203.5,284.5C 199.167,284.5 194.833,284.5 190.5,284.5C 162.487,281.668 136.487,273.002 112.5,258.5C 104.577,252.914 97.2432,246.581 90.5,239.5C 90.56,238.957 90.8933,238.624 91.5,238.5C 96.7813,239.286 102.115,239.786 107.5,240C 109.09,241.046 110.59,242.213 112,243.5C 112.464,242.906 112.631,242.239 112.5,241.5 Z"/></g>
<g><path style="opacity:1" fill="#193c5d" d="M 286.5,253.5 C 283.682,256.505 280.516,259.172 277,261.5C 276.536,262.094 276.369,262.761 276.5,263.5C 275.833,263.5 275.5,263.833 275.5,264.5C 272.833,265.5 270.167,266.5 267.5,267.5C 273.242,262.1 279.575,257.434 286.5,253.5 Z"/></g>
<g><path style="opacity:1" fill="#9bad6c" d="M 112.5,258.5 C 136.487,273.002 162.487,281.668 190.5,284.5C 190.918,285.222 191.584,285.722 192.5,286C 161.864,288.293 132.864,282.793 105.5,269.5C 105.631,268.624 105.298,267.957 104.5,267.5C 99.0016,264.585 93.6682,261.419 88.5,258C 91.275,258.374 93.9417,259.374 96.5,261C 101.864,261.829 107.198,261.663 112.5,260.5C 111.45,259.571 111.45,258.905 112.5,258.5 Z"/></g>
<g><path style="opacity:1" fill="#4420ba" d="M 318.5,222.5 C 317.261,225.589 315.761,228.589 314,231.5C 302.219,247.11 289.052,260.443 274.5,271.5C 274.167,272.167 273.833,272.833 273.5,273.5C 273.167,273.5 272.833,273.5 272.5,273.5C 269.557,273.98 266.89,274.98 264.5,276.5C 263.5,276.5 262.5,276.5 261.5,276.5C 270.044,271.545 278.377,266.045 286.5,260C 298.501,248.51 309.168,236.01 318.5,222.5 Z"/></g>
<g><path style="opacity:0.075" fill="#b39ef4" d="M 294.5,262.5 C 292.802,264.867 290.469,266.534 287.5,267.5C 289.198,265.133 291.531,263.466 294.5,262.5 Z"/></g>
<g><path style="opacity:0.604" fill="#a690e9" d="M 286.5,266.5 C 286.5,266.833 286.5,267.167 286.5,267.5C 282.414,269.87 278.081,271.87 273.5,273.5C 273.833,272.833 274.167,272.167 274.5,271.5C 278.701,270.214 282.701,268.547 286.5,266.5 Z"/></g>
<g><path style="opacity:1" fill="#193b5f" d="M 267.5,267.5 C 263.478,270.529 259.478,273.529 255.5,276.5C 253.299,277.566 250.965,278.233 248.5,278.5C 251.366,275.479 254.7,272.979 258.5,271C 261.309,269.259 264.309,268.092 267.5,267.5 Z"/></g>
<g><path style="opacity:1" fill="#08207b" d="M 275.5,264.5 C 272.898,266.81 269.898,268.643 266.5,270C 265.833,271 265.167,272 264.5,273C 261.707,274.654 258.707,275.821 255.5,276.5C 259.478,273.529 263.478,270.529 267.5,267.5C 270.167,266.5 272.833,265.5 275.5,264.5 Z"/></g>
<g><path style="opacity:0.004" fill="#baaedb" d="M 272.5,273.5 C 270.94,275.429 268.94,276.762 266.5,277.5C 266.158,276.662 265.492,276.328 264.5,276.5C 266.89,274.98 269.557,273.98 272.5,273.5 Z"/></g>
<g><path style="opacity:1" fill="#2c4f4a" d="M 298.5,239.5 C 296.415,244.155 293.082,247.655 288.5,250C 287.748,250.671 287.414,251.504 287.5,252.5C 286.833,252.5 286.5,252.833 286.5,253.5C 279.575,257.434 273.242,262.1 267.5,267.5C 264.309,268.092 261.309,269.259 258.5,271C 254.7,272.979 251.366,275.479 248.5,278.5C 244.565,279.754 240.565,280.754 236.5,281.5C 250.478,273.664 264.478,265.498 278.5,257C 282.906,253.149 287.239,249.316 291.5,245.5C 293.833,243.5 296.167,241.5 298.5,239.5 Z"/></g>
<g><path style="opacity:1" fill="#3e6137" d="M 289.5,244.5 C 289.833,244.5 290.167,244.5 290.5,244.5C 291.167,244.5 291.5,244.833 291.5,245.5C 287.239,249.316 282.906,253.149 278.5,257C 264.478,265.498 250.478,273.664 236.5,281.5C 231.107,282.346 225.773,283.512 220.5,285C 213.49,285.668 206.49,286.001 199.5,286C 201.058,285.79 202.391,285.29 203.5,284.5C 228.901,280.593 252.234,271.593 273.5,257.5C 279.438,253.894 284.771,249.561 289.5,244.5 Z"/></g>
<g><path style="opacity:0.433" fill="#d0d0d0" d="M 29.5,115.5 C 28.9084,118.127 28.5751,120.794 28.5,123.5C 28.5,123.833 28.5,124.167 28.5,124.5C 27.0244,129.066 26.0244,133.733 25.5,138.5C 23.5638,148.947 23.0638,159.614 24,170.5C 25.6571,179.793 26.9904,189.126 28,198.5C 30.8916,205.867 34.3916,212.867 38.5,219.5C 39.4676,222.1 40.8009,224.434 42.5,226.5C 46.3132,232.109 50.1465,237.776 54,243.5C 60.8333,249 67,255.167 72.5,262C 77.1667,265.333 81.8333,268.667 86.5,272C 94.7454,275.791 102.745,280.124 110.5,285C 120.732,286.412 130.399,289.412 139.5,294C 162.782,298.186 186.115,298.519 209.5,295C 210.328,294.085 211.328,293.419 212.5,293C 216.167,292.667 219.833,292.333 223.5,292C 229.647,289.211 235.98,286.878 242.5,285C 243.756,284.583 244.423,283.75 244.5,282.5C 245.5,281.833 246.5,281.167 247.5,280.5C 252.529,280.08 257.195,278.746 261.5,276.5C 262.5,276.5 263.5,276.5 264.5,276.5C 265.492,276.328 266.158,276.662 266.5,277.5C 246.284,288.974 224.617,296.308 201.5,299.5C 186.5,298.167 171.5,298.167 156.5,299.5C 119.945,293.72 87.9451,278.554 60.5,254C 26.5649,219.454 14.3983,178.288 24,130.5C 25.3901,125.228 27.2235,120.228 29.5,115.5 Z"/></g>
<g><path style="opacity:1" fill="#163266" d="M 248.5,278.5 C 248.167,279.167 247.833,279.833 247.5,280.5C 246.5,281.167 245.5,281.833 244.5,282.5C 243.167,282.5 241.833,282.5 240.5,282.5C 238.901,282.768 237.568,282.434 236.5,281.5C 240.565,280.754 244.565,279.754 248.5,278.5 Z"/></g>
<g><path style="opacity:1" fill="#444446" d="M 44.5,216.5 C 53.0388,230.042 63.7054,241.709 76.5,251.5C 85.3196,258.749 94.9862,264.749 105.5,269.5C 132.864,282.793 161.864,288.293 192.5,286C 191.584,285.722 190.918,285.222 190.5,284.5C 194.833,284.5 199.167,284.5 203.5,284.5C 202.391,285.29 201.058,285.79 199.5,286C 206.49,286.001 213.49,285.668 220.5,285C 225.773,283.512 231.107,282.346 236.5,281.5C 237.568,282.434 238.901,282.768 240.5,282.5C 240.5,282.833 240.5,283.167 240.5,283.5C 236.742,283.848 233.076,284.515 229.5,285.5C 218.625,287.523 207.625,289.023 196.5,290C 178.357,291.301 160.357,290.301 142.5,287C 133.752,283.584 124.752,281.084 115.5,279.5C 114.833,279.5 114.167,279.5 113.5,279.5C 108.829,276.498 103.829,273.998 98.5,272C 79.115,258.284 61.9484,242.118 47,223.5C 45.6338,221.63 44.4672,219.63 43.5,217.5C 43.6236,216.893 43.9569,216.56 44.5,216.5 Z"/></g>
<g><path style="opacity:1" fill="#5d5d5d" d="M 115.5,279.5 C 124.752,281.084 133.752,283.584 142.5,287C 160.357,290.301 178.357,291.301 196.5,290C 207.625,289.023 218.625,287.523 229.5,285.5C 227.981,286.41 226.315,287.243 224.5,288C 202.042,292.322 179.375,293.656 156.5,292C 148.644,289.158 140.478,287.325 132,286.5C 126.407,284.236 120.907,281.903 115.5,279.5 Z"/></g>
<g><path style="opacity:1" fill="#787878" d="M 113.5,279.5 C 114.167,279.5 114.833,279.5 115.5,279.5C 120.907,281.903 126.407,284.236 132,286.5C 140.478,287.325 148.644,289.158 156.5,292C 179.375,293.656 202.042,292.322 224.5,288C 226.315,287.243 227.981,286.41 229.5,285.5C 233.076,284.515 236.742,283.848 240.5,283.5C 235.857,285.996 230.857,287.829 225.5,289C 193.105,296.494 160.772,296.161 128.5,288C 122.844,286.145 117.844,283.312 113.5,279.5 Z"/></g>
<g><path style="opacity:1" fill="#a8a8a8" d="M 42.5,226.5 C 44.7157,227.203 46.549,228.536 48,230.5C 56.9393,245.108 68.7726,256.608 83.5,265C 86.9866,270 91.6532,273.166 97.5,274.5C 101.602,274.942 105.269,276.442 108.5,279C 110.134,279.494 111.801,279.66 113.5,279.5C 117.844,283.312 122.844,286.145 128.5,288C 160.772,296.161 193.105,296.494 225.5,289C 230.857,287.829 235.857,285.996 240.5,283.5C 240.5,283.167 240.5,282.833 240.5,282.5C 241.833,282.5 243.167,282.5 244.5,282.5C 244.423,283.75 243.756,284.583 242.5,285C 235.98,286.878 229.647,289.211 223.5,292C 219.833,292.333 216.167,292.667 212.5,293C 211.328,293.419 210.328,294.085 209.5,295C 186.115,298.519 162.782,298.186 139.5,294C 130.399,289.412 120.732,286.412 110.5,285C 102.745,280.124 94.7454,275.791 86.5,272C 81.8333,268.667 77.1667,265.333 72.5,262C 67,255.167 60.8333,249 54,243.5C 50.1465,237.776 46.3132,232.109 42.5,226.5 Z"/></g>
<g><path style="opacity:0.724" fill="#f5eddb" d="M 156.5,299.5 C 171.5,298.167 186.5,298.167 201.5,299.5C 186.507,300.816 171.507,300.816 156.5,299.5 Z"/></g>
<g><path style="opacity:0.924" fill="#0c45c0" d="M 40.5,301.5 C 141.5,301.5 242.5,301.5 343.5,301.5C 343.5,323.833 343.5,346.167 343.5,368.5C 242.5,368.5 141.5,368.5 40.5,368.5C 40.5,346.167 40.5,323.833 40.5,301.5 Z M 49.5,309.5 C 144.5,309.5 239.5,309.5 334.5,309.5C 334.5,326.5 334.5,343.5 334.5,360.5C 239.5,360.5 144.5,360.5 49.5,360.5C 49.5,343.5 49.5,326.5 49.5,309.5 Z M 297.5,332.5 C 303.092,336.689 303.758,341.523 299.5,347C 293.714,350.401 288.047,350.234 282.5,346.5C 279.136,340.041 280.803,335.208 287.5,332C 290.888,331.341 294.221,331.508 297.5,332.5 Z M 230.5,332.5 C 236.327,338.716 235.66,344.216 228.5,349C 224.797,349.579 221.131,349.412 217.5,348.5C 217.167,347.5 216.5,346.833 215.5,346.5C 215.573,344.973 214.906,343.973 213.5,343.5C 213.338,341.473 213.505,339.473 214,337.5C 215.802,336.211 216.969,334.544 217.5,332.5C 221.833,331.167 226.167,331.167 230.5,332.5 Z M 130.5,332.5 C 135.811,337.753 135.811,343.086 130.5,348.5C 126.182,349.754 121.848,349.754 117.5,348.5C 117.167,347.5 116.5,346.833 115.5,346.5C 115.573,344.973 114.906,343.973 113.5,343.5C 113.338,341.473 113.505,339.473 114,337.5C 115.802,336.211 116.969,334.544 117.5,332.5C 121.833,331.167 126.167,331.167 130.5,332.5 Z"/></g>
<g><path style="opacity:0.255" fill="#9eb8e6" d="M 48.5,308.5 C 144.167,308.5 239.833,308.5 335.5,308.5C 335.5,326.167 335.5,343.833 335.5,361.5C 239.833,361.5 144.167,361.5 48.5,361.5C 48.5,343.833 48.5,326.167 48.5,308.5 Z M 49.5,309.5 C 49.5,326.5 49.5,343.5 49.5,360.5C 144.5,360.5 239.5,360.5 334.5,360.5C 334.5,343.5 334.5,326.5 334.5,309.5C 239.5,309.5 144.5,309.5 49.5,309.5 Z M 297.5,332.5 C 303.092,336.689 303.758,341.523 299.5,347C 293.714,350.401 288.047,350.234 282.5,346.5C 279.136,340.041 280.803,335.208 287.5,332C 290.888,331.341 294.221,331.508 297.5,332.5 Z M 230.5,332.5 C 236.327,338.716 235.66,344.216 228.5,349C 224.797,349.579 221.131,349.412 217.5,348.5C 217.167,347.5 216.5,346.833 215.5,346.5C 215.573,344.973 214.906,343.973 213.5,343.5C 213.338,341.473 213.505,339.473 214,337.5C 215.802,336.211 216.969,334.544 217.5,332.5C 221.833,331.167 226.167,331.167 230.5,332.5 Z M 130.5,332.5 C 135.811,337.753 135.811,343.086 130.5,348.5C 126.182,349.754 121.848,349.754 117.5,348.5C 117.167,347.5 116.5,346.833 115.5,346.5C 115.573,344.973 114.906,343.973 113.5,343.5C 113.338,341.473 113.505,339.473 114,337.5C 115.802,336.211 116.969,334.544 117.5,332.5C 121.833,331.167 126.167,331.167 130.5,332.5 Z"/></g>
<g><path style="opacity:0.463" fill="#8aa6e1" d="M 280.5,352.5 C 286.75,354.528 293.083,354.861 299.5,353.5C 297.193,355.047 294.527,355.713 291.5,355.5C 287.347,355.867 283.68,354.867 280.5,352.5 Z"/></g>
<g><path style="opacity:0.463" fill="#89a6e1" d="M 250.5,353.5 C 255.167,354.833 259.833,354.833 264.5,353.5C 262.538,355.017 260.205,355.684 257.5,355.5C 254.795,355.684 252.462,355.017 250.5,353.5 Z"/></g>
<g><path style="opacity:0.475" fill="#96b2e4" d="M 213.5,352.5 C 218.697,354.087 224.031,354.754 229.5,354.5C 225.689,355.645 221.689,355.812 217.5,355C 215.68,354.8 214.347,353.966 213.5,352.5 Z"/></g>
<g><path style="opacity:0.463" fill="#92aee3" d="M 154.5,352.5 C 159.697,354.087 165.031,354.754 170.5,354.5C 166.689,355.645 162.689,355.812 158.5,355C 156.68,354.8 155.347,353.966 154.5,352.5 Z"/></g>
<g><path style="opacity:0.137" fill="#adc2ea" d="M 236.5,353.5 C 236.5,353.833 236.5,354.167 236.5,354.5C 234.5,353.167 232.5,353.167 230.5,354.5C 232.348,351.522 234.348,351.188 236.5,353.5 Z"/></g>
<g><path style="opacity:0.125" fill="#b5c8ed" d="M 134.5,351.5 C 135.404,352.209 135.737,353.209 135.5,354.5C 133.901,353.438 132.234,353.438 130.5,354.5C 130.5,354.167 130.5,353.833 130.5,353.5C 131.833,352.833 133.167,352.167 134.5,351.5 Z"/></g>
<g><path style="opacity:0.928" fill="#5a77d1" d="M 113.5,352.5 C 119.13,353.292 124.797,353.625 130.5,353.5C 130.5,353.833 130.5,354.167 130.5,354.5C 126.253,355.602 121.92,355.768 117.5,355C 115.934,354.392 114.6,353.558 113.5,352.5 Z"/></g>
<g><path style="opacity:0.71" fill="#6a90d9" d="M 83.5,349.5 C 89.8333,349.5 96.1667,349.5 102.5,349.5C 102.5,351.167 102.5,352.833 102.5,354.5C 93.5,354.5 84.5,354.5 75.5,354.5C 75.5,354.167 75.5,353.833 75.5,353.5C 83.8333,353.5 92.1667,353.5 100.5,353.5C 100.5,352.5 100.5,351.5 100.5,350.5C 94.642,350.822 88.9753,350.489 83.5,349.5 Z"/></g>
<g><path style="opacity:1" fill="#1242bf" d="M 174.5,327.5 C 175.833,327.5 177.167,327.5 178.5,327.5C 178.891,334.921 178.391,342.254 177,349.5C 175.035,351.55 172.868,353.217 170.5,354.5C 165.031,354.754 159.697,354.087 154.5,352.5C 153.164,350.99 151.997,349.323 151,347.5C 150.5,340.842 150.334,334.175 150.5,327.5C 152.167,327.5 153.833,327.5 155.5,327.5C 155.334,333.842 155.5,340.175 156,346.5C 161.761,353.142 167.428,353.142 173,346.5C 173.172,339.987 173.672,333.653 174.5,327.5 Z"/></g>
<g><path style="opacity:1" fill="#113fbd" d="M 267.5,331.5 C 267.5,332.167 267.167,332.5 266.5,332.5C 265.167,332.5 263.833,332.5 262.5,332.5C 262.389,331.883 262.056,331.383 261.5,331C 259.5,330.333 257.5,330.333 255.5,331C 254.199,332.616 254.199,334.116 255.5,335.5C 259.354,338.021 263.188,340.688 267,343.5C 268.139,347.421 267.305,350.754 264.5,353.5C 259.833,354.833 255.167,354.833 250.5,353.5C 248.752,352.211 248.419,350.711 249.5,349C 251.933,349.361 254.433,349.861 257,350.5C 259.008,350.693 260.508,350.026 261.5,348.5C 262.598,347.399 262.765,346.066 262,344.5C 261.329,343.748 260.496,343.414 259.5,343.5C 258.508,343.672 257.842,343.338 257.5,342.5C 255.058,341.101 252.724,339.434 250.5,337.5C 248.358,330.793 250.858,327.126 258,326.5C 262.055,326.774 265.222,328.441 267.5,331.5 Z"/></g>
<g><path style="opacity:1" fill="#1b42bf" d="M 234.5,329.5 C 234.56,330.043 234.893,330.376 235.5,330.5C 236.386,329.675 236.719,328.675 236.5,327.5C 237.833,327.5 239.167,327.5 240.5,327.5C 240.5,336.167 240.5,344.833 240.5,353.5C 239.167,353.5 237.833,353.5 236.5,353.5C 234.348,351.188 232.348,351.522 230.5,354.5C 230.167,354.5 229.833,354.5 229.5,354.5C 224.031,354.754 218.697,354.087 213.5,352.5C 211.873,350.37 210.04,348.37 208,346.5C 207.501,342.514 207.334,338.514 207.5,334.5C 215.14,326.082 224.14,324.415 234.5,329.5 Z M 230.5,332.5 C 236.327,338.716 235.66,344.216 228.5,349C 224.797,349.579 221.131,349.412 217.5,348.5C 217.167,347.5 216.5,346.833 215.5,346.5C 215.573,344.973 214.906,343.973 213.5,343.5C 213.338,341.473 213.505,339.473 214,337.5C 215.802,336.211 216.969,334.544 217.5,332.5C 221.833,331.167 226.167,331.167 230.5,332.5 Z"/></g>
<g><path style="opacity:0.075" fill="#b6c9ed" d="M 274.5,335.5 C 274.335,338.85 274.502,342.183 275,345.5C 276.666,347.996 278.5,350.329 280.5,352.5C 277.572,351.409 275.406,349.409 274,346.5C 273.19,342.642 273.357,338.976 274.5,335.5 Z"/></g>
<g><path style="opacity:0.725" fill="#96b0e5" d="M 261.5,348.5 C 260.508,350.026 259.008,350.693 257,350.5C 254.433,349.861 251.933,349.361 249.5,349C 248.419,350.711 248.752,352.211 250.5,353.5C 246.344,352.788 245.677,350.955 248.5,348C 251.565,347.347 254.399,347.847 257,349.5C 258.533,349.227 260.033,348.894 261.5,348.5 Z"/></g>
<g><path style="opacity:0.09" fill="#9eb3e6" d="M 207.5,334.5 C 207.334,338.514 207.501,342.514 208,346.5C 210.04,348.37 211.873,350.37 213.5,352.5C 205.687,348.395 203.687,342.395 207.5,334.5 Z"/></g>
<g><path style="opacity:0.565" fill="#98afe4" d="M 107.5,334.5 C 106.017,341.791 108.017,347.791 113.5,352.5C 105.687,348.395 103.687,342.395 107.5,334.5 Z"/></g>
<g><path style="opacity:0.773" fill="#a4bae8" d="M 255.5,335.5 C 260.178,336.922 264.345,339.256 268,342.5C 270,345.5 270,348.5 268,351.5C 267.184,352.823 266.017,353.489 264.5,353.5C 267.305,350.754 268.139,347.421 267,343.5C 263.188,340.688 259.354,338.021 255.5,335.5 Z"/></g>
<g><path style="opacity:0.341" fill="#b9c9ed" d="M 259.5,343.5 C 260.496,343.414 261.329,343.748 262,344.5C 262.765,346.066 262.598,347.399 261.5,348.5C 261.107,346.716 260.441,345.05 259.5,343.5 Z"/></g>
<g><path style="opacity:0.282" fill="#c4d3f0" d="M 213.5,343.5 C 214.906,343.973 215.573,344.973 215.5,346.5C 214.094,346.027 213.427,345.027 213.5,343.5 Z"/></g>
<g><path style="opacity:1" fill="#0d41be" d="M 301.5,352.5 C 301.158,353.338 300.492,353.672 299.5,353.5C 293.083,354.861 286.75,354.528 280.5,352.5C 278.5,350.329 276.666,347.996 275,345.5C 274.502,342.183 274.335,338.85 274.5,335.5C 281.943,326.351 291.11,324.351 302,329.5C 303.921,327.997 306.088,327.331 308.5,327.5C 308.5,336.167 308.5,344.833 308.5,353.5C 306.179,353.771 304.179,353.104 302.5,351.5C 301.893,351.624 301.56,351.957 301.5,352.5 Z M 297.5,332.5 C 303.092,336.689 303.758,341.523 299.5,347C 293.714,350.401 288.047,350.234 282.5,346.5C 279.136,340.041 280.803,335.208 287.5,332C 290.888,331.341 294.221,331.508 297.5,332.5 Z"/></g>
<g><path style="opacity:0.522" fill="#8ea8e2" d="M 297.5,332.5 C 303.027,334.221 304.86,337.888 303,343.5C 298.374,352.003 291.874,353.669 283.5,348.5C 282.702,348.043 282.369,347.376 282.5,346.5C 288.047,350.234 293.714,350.401 299.5,347C 303.758,341.523 303.092,336.689 297.5,332.5 Z"/></g>
<g><path style="opacity:0.387" fill="#bccdee" d="M 204.5,326.5 C 205.573,327.251 205.74,328.251 205,329.5C 202.834,331.121 200.334,331.955 197.5,332C 195.959,333.579 194.792,335.413 194,337.5C 193.827,343.348 193.327,349.015 192.5,354.5C 192.5,349.167 192.5,343.833 192.5,338.5C 193.21,332.626 196.543,329.792 202.5,330C 203.823,329.184 204.489,328.017 204.5,326.5 Z"/></g>
<g><path style="opacity:0.839" fill="#8da7e2" d="M 81.5,336.5 C 82.1667,336.5 82.5,336.833 82.5,337.5C 82.5,341.5 82.5,345.5 82.5,349.5C 82.44,350.043 82.1067,350.376 81.5,350.5C 80.1876,345.682 80.1876,341.015 81.5,336.5 Z"/></g>
<g><path style="opacity:0.329" fill="#97ade4" d="M 230.5,332.5 C 236.883,335.767 238.049,340.434 234,346.5C 228.827,351.955 223.327,352.622 217.5,348.5C 221.131,349.412 224.797,349.579 228.5,349C 235.66,344.216 236.327,338.716 230.5,332.5 Z"/></g>
<g><path style="opacity:1" fill="#1c42bf" d="M 136.5,317.5 C 137.833,317.5 139.167,317.5 140.5,317.5C 140.5,329.5 140.5,341.5 140.5,353.5C 139.167,353.5 137.833,353.5 136.5,353.5C 136.719,352.325 136.386,351.325 135.5,350.5C 134.893,350.624 134.56,350.957 134.5,351.5C 133.167,352.167 131.833,352.833 130.5,353.5C 124.797,353.625 119.13,353.292 113.5,352.5C 108.017,347.791 106.017,341.791 107.5,334.5C 115.181,326.298 124.181,324.632 134.5,329.5C 134.56,330.043 134.893,330.376 135.5,330.5C 136.492,326.217 136.826,321.884 136.5,317.5 Z M 130.5,332.5 C 135.811,337.753 135.811,343.086 130.5,348.5C 126.182,349.754 121.848,349.754 117.5,348.5C 117.167,347.5 116.5,346.833 115.5,346.5C 115.573,344.973 114.906,343.973 113.5,343.5C 113.338,341.473 113.505,339.473 114,337.5C 115.802,336.211 116.969,334.544 117.5,332.5C 121.833,331.167 126.167,331.167 130.5,332.5 Z"/></g>
<g><path style="opacity:0.667" fill="#688ad7" d="M 117.5,348.5 C 121.848,349.754 126.182,349.754 130.5,348.5C 130.833,348.5 131.167,348.5 131.5,348.5C 126.762,352.423 122.095,352.423 117.5,348.5 Z"/></g>
<g><path style="opacity:0.286" fill="#ccdaf2" d="M 113.5,343.5 C 114.906,343.973 115.573,344.973 115.5,346.5C 114.094,346.027 113.427,345.027 113.5,343.5 Z"/></g>
<g><path style="opacity:0.353" fill="#abbee9" d="M 130.5,332.5 C 138.07,337.284 138.403,342.618 131.5,348.5C 131.167,348.5 130.833,348.5 130.5,348.5C 135.811,343.086 135.811,337.753 130.5,332.5 Z"/></g>
<g><path style="opacity:0.216" fill="#4c7ad1" d="M 81.5,336.5 C 87.979,335.509 94.6457,335.176 101.5,335.5C 101.5,336.167 101.5,336.833 101.5,337.5C 95.1667,337.5 88.8333,337.5 82.5,337.5C 82.5,336.833 82.1667,336.5 81.5,336.5 Z"/></g>
<g><path style="opacity:0.055" fill="#a2b9e7" d="M 297.5,332.5 C 294.221,331.508 290.888,331.341 287.5,332C 280.803,335.208 279.136,340.041 282.5,346.5C 278.136,341.123 278.802,336.29 284.5,332C 288.375,330.48 292.375,330.146 296.5,331C 297.056,331.383 297.389,331.883 297.5,332.5 Z"/></g>
<g><path style="opacity:0.016" fill="#bacced" d="M 217.5,332.5 C 216.969,334.544 215.802,336.211 214,337.5C 213.505,339.473 213.338,341.473 213.5,343.5C 211.392,338.696 212.725,335.029 217.5,332.5 Z"/></g>
<g><path style="opacity:0.155" fill="#c0d0ef" d="M 117.5,332.5 C 116.969,334.544 115.802,336.211 114,337.5C 113.505,339.473 113.338,341.473 113.5,343.5C 111.392,338.696 112.725,335.029 117.5,332.5 Z"/></g>
<g><path style="opacity:0.024" fill="#85a1e0" d="M 262.5,332.5 C 263.833,332.5 265.167,332.5 266.5,332.5C 266.38,333.586 265.713,334.253 264.5,334.5C 263.287,334.253 262.62,333.586 262.5,332.5 Z"/></g>
<g><path style="opacity:1" fill="#083dbd" d="M 101.5,321.5 C 94.6457,321.176 87.979,321.509 81.5,322.5C 80.5206,325.625 80.1872,328.958 80.5,332.5C 87.5,332.5 94.5,332.5 101.5,332.5C 101.5,333.5 101.5,334.5 101.5,335.5C 94.6457,335.176 87.979,335.509 81.5,336.5C 80.1876,341.015 80.1876,345.682 81.5,350.5C 82.1067,350.376 82.44,350.043 82.5,349.5C 82.8333,349.5 83.1667,349.5 83.5,349.5C 88.9753,350.489 94.642,350.822 100.5,350.5C 100.5,351.5 100.5,352.5 100.5,353.5C 92.1667,353.5 83.8333,353.5 75.5,353.5C 75.5,341.833 75.5,330.167 75.5,318.5C 84.1667,318.5 92.8333,318.5 101.5,318.5C 101.5,319.5 101.5,320.5 101.5,321.5 Z"/></g>
<g><path style="opacity:0.996" fill="#0b3cbd" d="M 203.5,326.5 C 203.833,326.5 204.167,326.5 204.5,326.5C 204.489,328.017 203.823,329.184 202.5,330C 196.543,329.792 193.21,332.626 192.5,338.5C 191.513,343.305 191.179,348.305 191.5,353.5C 190.167,353.5 188.833,353.5 187.5,353.5C 187.5,344.833 187.5,336.167 187.5,327.5C 190.079,327.865 192.412,327.865 194.5,327.5C 197.43,326.701 200.43,326.368 203.5,326.5 Z"/></g>
<g><path style="opacity:0.271" fill="#b2c5eb" d="M 81.5,322.5 C 82.1667,322.5 82.5,322.833 82.5,323.5C 82.3359,326.187 82.5026,328.854 83,331.5C 88.7504,330.359 94.5837,330.193 100.5,331C 102.668,332.97 103.002,335.137 101.5,337.5C 101.5,336.833 101.5,336.167 101.5,335.5C 101.5,334.5 101.5,333.5 101.5,332.5C 94.5,332.5 87.5,332.5 80.5,332.5C 80.1872,328.958 80.5206,325.625 81.5,322.5 Z"/></g>
<g><path style="opacity:0.306" fill="#a8bee9" d="M 262.5,332.5 C 260.545,331.677 258.545,331.51 256.5,332C 255.663,333.011 255.33,334.178 255.5,335.5C 254.199,334.116 254.199,332.616 255.5,331C 257.5,330.333 259.5,330.333 261.5,331C 262.056,331.383 262.389,331.883 262.5,332.5 Z"/></g>
<g><path style="opacity:0.836" fill="#87a3e0" d="M 174.5,327.5 C 174.5,327.167 174.5,326.833 174.5,326.5C 176.5,326.5 178.5,326.5 180.5,326.5C 180.848,333.906 180.348,341.239 179,348.5C 177.395,352.276 174.562,354.276 170.5,354.5C 172.868,353.217 175.035,351.55 177,349.5C 178.391,342.254 178.891,334.921 178.5,327.5C 177.167,327.5 175.833,327.5 174.5,327.5 Z"/></g>
<g><path style="opacity:0.482" fill="#89a8e1" d="M 301.5,352.5 C 301.56,351.957 301.893,351.624 302.5,351.5C 304.179,353.104 306.179,353.771 308.5,353.5C 308.5,344.833 308.5,336.167 308.5,327.5C 306.088,327.331 303.921,327.997 302,329.5C 291.11,324.351 281.943,326.351 274.5,335.5C 276.066,330.112 279.733,326.945 285.5,326C 289.5,325.333 293.5,325.333 297.5,326C 299.329,326.273 300.829,327.107 302,328.5C 304.106,326.709 306.606,326.042 309.5,326.5C 309.5,335.833 309.5,345.167 309.5,354.5C 306.467,354.868 303.8,354.202 301.5,352.5 Z"/></g>
<g><path style="opacity:0.867" fill="#7391da" d="M 236.5,354.5 C 236.5,354.167 236.5,353.833 236.5,353.5C 237.833,353.5 239.167,353.5 240.5,353.5C 240.5,344.833 240.5,336.167 240.5,327.5C 239.167,327.5 237.833,327.5 236.5,327.5C 236.719,328.675 236.386,329.675 235.5,330.5C 234.893,330.376 234.56,330.043 234.5,329.5C 235.404,328.791 235.737,327.791 235.5,326.5C 237.674,326.08 239.674,326.08 241.5,326.5C 242.498,335.81 242.832,345.143 242.5,354.5C 240.5,354.5 238.5,354.5 236.5,354.5 Z"/></g>
<g><path style="opacity:0.792" fill="#7895dc" d="M 194.5,327.5 C 192.412,327.865 190.079,327.865 187.5,327.5C 187.5,336.167 187.5,344.833 187.5,353.5C 188.833,353.5 190.167,353.5 191.5,353.5C 191.179,348.305 191.513,343.305 192.5,338.5C 192.5,343.833 192.5,349.167 192.5,354.5C 190.167,354.5 187.833,354.5 185.5,354.5C 185.168,345.143 185.502,335.81 186.5,326.5C 189.114,326.011 191.78,326.344 194.5,327.5 Z"/></g>
<g><path style="opacity:0.341" fill="#a5bbe8" d="M 174.5,326.5 C 174.5,326.833 174.5,327.167 174.5,327.5C 173.672,333.653 173.172,339.987 173,346.5C 167.428,353.142 161.761,353.142 156,346.5C 155.5,340.175 155.334,333.842 155.5,327.5C 153.833,327.5 152.167,327.5 150.5,327.5C 150.334,334.175 150.5,340.842 151,347.5C 151.997,349.323 153.164,350.99 154.5,352.5C 152.248,352.084 150.748,350.751 150,348.5C 148.7,341.229 148.2,333.896 148.5,326.5C 151.167,326.5 153.833,326.5 156.5,326.5C 156.334,332.509 156.501,338.509 157,344.5C 160.274,349.738 164.774,350.904 170.5,348C 171.126,347.25 171.626,346.416 172,345.5C 171.869,338.754 172.702,332.421 174.5,326.5 Z"/></g>
<g><path style="opacity:0.58" fill="#91ace3" d="M 235.5,326.5 C 235.737,327.791 235.404,328.791 234.5,329.5C 224.14,324.415 215.14,326.082 207.5,334.5C 209.391,330.118 212.724,327.285 217.5,326C 222.989,325.068 228.323,325.568 233.5,327.5C 234.183,327.137 234.85,326.804 235.5,326.5 Z"/></g>
<g><path style="opacity:0.435" fill="#89a7e1" d="M 267.5,331.5 C 265.222,328.441 262.055,326.774 258,326.5C 250.858,327.126 248.358,330.793 250.5,337.5C 252.724,339.434 255.058,341.101 257.5,342.5C 249.684,341.505 246.85,337.172 249,329.5C 253.861,325.178 259.361,324.345 265.5,327C 266.728,327.779 267.728,328.779 268.5,330C 268.43,330.765 268.097,331.265 267.5,331.5 Z"/></g>
<g><path style="opacity:0.439" fill="#85a5e0" d="M 203.5,326.5 C 200.43,326.368 197.43,326.701 194.5,327.5C 194.611,326.883 194.944,326.383 195.5,326C 198.367,325.199 201.034,325.366 203.5,326.5 Z"/></g>
<g><path style="opacity:0.894" fill="#4676d0" d="M 140.5,317.5 C 141.495,329.655 141.829,341.989 141.5,354.5C 139.5,354.5 137.5,354.5 135.5,354.5C 135.737,353.209 135.404,352.209 134.5,351.5C 134.56,350.957 134.893,350.624 135.5,350.5C 136.386,351.325 136.719,352.325 136.5,353.5C 137.833,353.5 139.167,353.5 140.5,353.5C 140.5,341.5 140.5,329.5 140.5,317.5 Z"/></g>
<g><path style="opacity:0.162" fill="#a8bee9" d="M 141.5,354.5 C 141.829,341.989 141.495,329.655 140.5,317.5C 139.167,317.5 137.833,317.5 136.5,317.5C 135.833,321.5 135.167,325.5 134.5,329.5C 124.181,324.632 115.181,326.298 107.5,334.5C 109.391,330.118 112.724,327.285 117.5,326C 122.989,325.068 128.323,325.568 133.5,327.5C 134.325,323.878 134.825,320.211 135,316.5C 137.064,315.409 139.231,315.242 141.5,316C 142.83,328.931 142.83,341.765 141.5,354.5 Z"/></g>
<g><path style="opacity:0.949" fill="#4c7ad2" d="M 136.5,317.5 C 136.826,321.884 136.492,326.217 135.5,330.5C 134.893,330.376 134.56,330.043 134.5,329.5C 135.167,325.5 135.833,321.5 136.5,317.5 Z"/></g>
<g><path style="opacity:0.459" fill="#9eb7e7" d="M 101.5,323.5 C 101.5,322.833 101.5,322.167 101.5,321.5C 101.5,320.5 101.5,319.5 101.5,318.5C 92.8333,318.5 84.1667,318.5 75.5,318.5C 75.5,330.167 75.5,341.833 75.5,353.5C 75.5,353.833 75.5,354.167 75.5,354.5C 74.1753,342.327 74.1753,329.994 75.5,317.5C 83.7845,316.364 92.1178,316.197 100.5,317C 102.668,318.97 103.002,321.137 101.5,323.5 Z"/></g>
<g><path style="opacity:0.431" fill="#4f7ed3" d="M 81.5,322.5 C 87.979,321.509 94.6457,321.176 101.5,321.5C 101.5,322.167 101.5,322.833 101.5,323.5C 95.1667,323.5 88.8333,323.5 82.5,323.5C 82.5,322.833 82.1667,322.5 81.5,322.5 Z"/></g>
</svg>
